<svg width="161" height="179" viewBox="0 0 161 179" fill="none" xmlns="http://www.w3.org/2000/svg">
<path d="M14 177.5L147 177.5C153.904 177.5 159.5 171.904 159.5 165L159.5 56.6626C159.5 51.4212 156.23 46.7365 151.31 44.9292L130.142 37.1533C125.393 35.4089 121.794 31.4566 120.501 26.5656L116.334 10.8051C114.884 5.32042 109.923 1.5 104.249 1.5L34.8102 1.49999C29.1793 1.49999 24.5876 6.15198 24.5876 11.8128C24.5876 19.0017 18.7626 24.9453 11.5438 24.9453C5.99675 24.9453 1.5 29.4421 1.5 34.9891L1.49999 165C1.49998 171.904 7.09642 177.5 14 177.5Z" fill="#0D0D0D" stroke="url(#paint0_linear_27_3)" stroke-width="3"/>
<path d="M106.917 87.6899H90.464V68.7565C90.456 62.8232 85.6507 58.0179 79.7173 58.0099H49.7493C47.024 57.8072 39.2933 60.7539 42.0187 64.2259C42.8213 64.9832 44.0853 64.9485 44.8453 64.1459C46.1173 62.7939 47.8907 62.0232 49.7467 62.0125H79.72C83.4453 62.0179 86.4613 65.0339 86.4667 68.7592V88.1192C86.4587 91.7859 83.4187 94.9139 79.72 94.8659H61.1067C60.6773 94.8659 60.2587 95.0045 59.9147 95.2605L50.4933 102.245V96.8125C50.4933 95.8232 49.7707 94.9832 48.792 94.8365C45.4747 94.3192 43.024 91.4765 43 88.1192V73.1859C42.9947 70.5859 39.0107 70.5592 39 73.1859V88.1192C39.0293 92.7965 42.048 96.9325 46.4933 98.3885V103.746C46.408 106.322 49.6773 107.983 51.6853 106.341L61.768 98.8739H66.2V117.807C66.2053 123.741 71.0133 128.549 76.9467 128.554H94.8987L105.067 136.114C107.104 137.599 110.301 135.994 110.187 133.434V128.077C114.643 126.629 117.664 122.485 117.68 117.799V98.4392C117.675 92.5005 112.859 87.6899 106.917 87.6899ZM113.667 117.799C113.661 121.157 111.208 124.007 107.888 124.514C106.904 124.655 106.173 125.498 106.173 126.493V131.949L96.7547 124.941C96.408 124.685 95.9893 124.546 95.56 124.546H76.9467C73.2213 124.541 70.2053 121.525 70.2 117.799V98.8659H79.72C84.2827 98.8792 88.3493 95.9992 89.8533 91.6925H106.92C110.645 91.6979 113.661 94.7139 113.667 98.4392V117.799Z" fill="url(#paint1_linear_27_3)"/>
<path d="M93.736 97.9379C92.9467 96.4846 90.8933 96.4606 90.112 97.9379L81.264 116.461C80.0907 118.847 83.7467 120.605 84.872 118.189L87.088 113.551H96.752L98.968 118.189C100.048 120.535 103.731 118.799 102.579 116.463C102.581 116.463 93.736 97.9379 93.736 97.9379ZM89.016 109.549L91.9493 103.439L94.8693 109.549H89.016Z" fill="url(#paint2_linear_27_3)"/>
<path d="M51.5973 89.1886C51.984 90.2046 53.216 90.7166 54.2133 90.2952C57.9653 88.8259 61.5253 86.9032 64.8107 84.5699C68.0667 86.8606 71.5653 88.7832 75.2453 90.3006C76.2507 90.7565 77.4374 90.3086 77.8907 89.3032C78.344 88.2979 77.8987 87.1112 76.8933 86.6579C73.7893 85.3806 70.8214 83.7939 68.0347 81.9192C69.7094 80.3966 71.1147 78.6072 72.1973 76.6206H75.432C78.0454 76.6099 78.048 72.6312 75.432 72.6206H66.7307V68.4232C66.7307 67.3192 65.8347 66.4232 64.7307 66.4232C63.6267 66.4232 62.7307 67.3192 62.7307 68.4232V72.6206H54.0293C51.416 72.6312 51.4133 76.6099 54.0293 76.6206H67.4747C66.6614 77.6632 65.7547 78.6286 64.7573 79.5006C64.256 79.0872 63.9573 78.8232 63.9573 78.8126C61.8053 76.8899 59.1387 80.3432 61.5227 82.0019C58.752 83.8366 55.7947 85.3726 52.704 86.5886C51.6827 87.0019 51.1867 88.1672 51.5973 89.1886Z" fill="url(#paint3_linear_27_3)"/>
<defs>
<linearGradient id="paint0_linear_27_3" x1="173.444" y1="67.6535" x2="-10.4442" y2="97.9141" gradientUnits="userSpaceOnUse">
<stop stop-color="#FEB548"/>
<stop offset="1" stop-color="#FF1308"/>
</linearGradient>
<linearGradient id="paint1_linear_27_3" x1="35.0913" y1="71.3406" x2="95.5913" y2="108.841" gradientUnits="userSpaceOnUse">
<stop stop-color="#FEB548"/>
<stop offset="1" stop-color="#FF0000"/>
</linearGradient>
<linearGradient id="paint2_linear_27_3" x1="79.9535" y1="100.655" x2="96.9952" y2="110.87" gradientUnits="userSpaceOnUse">
<stop stop-color="#FEB548"/>
<stop offset="1" stop-color="#FF0000"/>
</linearGradient>
<linearGradient id="paint3_linear_27_3" x1="50.1309" y1="70.5018" x2="69.3973" y2="83.7148" gradientUnits="userSpaceOnUse">
<stop stop-color="#FEB548"/>
<stop offset="1" stop-color="#FF0000"/>
</linearGradient>
</defs>
</svg>
