<svg width="120" height="120" viewBox="0 0 120 120" fill="none" xmlns="http://www.w3.org/2000/svg">
<g clip-path="url(#clip0_160_25)">
<path d="M102.864 45.5239H78.184V17.1239C78.172 8.22394 70.964 1.01594 62.064 1.00394H17.112C13.024 0.699942 1.42804 5.11994 5.51604 10.3279C6.72004 11.4639 8.61604 11.4119 9.75604 10.2079C11.664 8.17994 14.324 7.02394 17.108 7.00794H62.068C67.656 7.01594 72.18 11.5399 72.188 17.1279V46.1679C72.176 51.6679 67.616 56.3599 62.068 56.2879H34.148C33.504 56.2879 32.876 56.4959 32.36 56.8799L18.228 67.3559V59.2079C18.228 57.7239 17.144 56.4639 15.676 56.2439C10.7 55.4679 7.02404 51.2039 6.98804 46.1679V23.7679C6.98004 19.8679 1.00404 19.8279 0.988037 23.7679V46.1679C1.03204 53.1839 5.56004 59.3879 12.228 61.5719V69.6079C12.1 73.4719 17.004 75.9639 20.016 73.4999L35.14 62.2999H41.788V90.6999C41.796 99.5999 49.008 106.812 57.908 106.82H84.836L100.088 118.16C103.144 120.388 107.94 117.98 107.768 114.14V106.104C114.452 103.932 118.984 97.7159 119.008 90.6879V61.6479C119 52.7399 111.776 45.5239 102.864 45.5239ZM112.988 90.6879C112.98 95.7239 109.3 99.9999 104.32 100.76C102.844 100.972 101.748 102.236 101.748 103.728V111.912L87.62 101.4C87.1 101.016 86.472 100.808 85.828 100.808H57.908C52.32 100.8 47.796 96.2759 47.788 90.6879V62.2879H62.068C68.912 62.3079 75.012 57.9879 77.268 51.5279H102.868C108.456 51.5359 112.98 56.0599 112.988 61.6479V90.6879Z" fill="url(#paint0_linear_160_25)"/>
<path d="M83.0921 60.896C81.9081 58.716 78.8281 58.68 77.6561 60.896L64.3841 88.68C62.6241 92.26 68.1081 94.896 69.7961 91.272L73.1201 84.316H87.6161L90.9401 91.272C92.5601 94.792 98.0841 92.188 96.3561 88.684C96.3601 88.684 83.0921 60.896 83.0921 60.896ZM76.0121 78.312L80.4121 69.148L84.7921 78.312H76.0121Z" fill="url(#paint1_linear_160_25)"/>
<path d="M19.884 47.7719C20.464 49.2959 22.312 50.0639 23.808 49.4319C29.436 47.2279 34.776 44.3439 39.704 40.8439C44.588 44.2799 49.836 47.1639 55.356 49.4399C56.864 50.1239 58.644 49.4519 59.324 47.9439C60.004 46.4359 59.336 44.6559 57.828 43.9759C53.172 42.0599 48.72 39.6799 44.54 36.8679C47.052 34.5839 49.16 31.8999 50.784 28.9199H55.636C59.556 28.9039 59.56 22.9359 55.636 22.9199H42.584V16.6239C42.584 14.9679 41.24 13.6239 39.584 13.6239C37.928 13.6239 36.584 14.9679 36.584 16.6239V22.9199H23.532C19.612 22.9359 19.608 28.9039 23.532 28.9199H43.7C42.48 30.4839 41.12 31.9319 39.624 33.2399C38.872 32.6199 38.424 32.2239 38.424 32.2079C35.196 29.3239 31.196 34.5039 34.772 36.9919C30.616 39.7439 26.18 42.0479 21.544 43.8719C20.012 44.4919 19.268 46.2399 19.884 47.7719Z" fill="url(#paint2_linear_160_25)"/>
</g>
<defs>
<linearGradient id="paint0_linear_160_25" x1="-4.875" y1="21" x2="85.875" y2="77.25" gradientUnits="userSpaceOnUse">
<stop stop-color="#564EFF"/>
<stop offset="1" stop-color="#2589FF"/>
</linearGradient>
<linearGradient id="paint1_linear_160_25" x1="62.4183" y1="64.9712" x2="87.9809" y2="80.2944" gradientUnits="userSpaceOnUse">
<stop stop-color="#564EFF"/>
<stop offset="1" stop-color="#2589FF"/>
</linearGradient>
<linearGradient id="paint2_linear_160_25" x1="17.6843" y1="19.7418" x2="46.5839" y2="39.5613" gradientUnits="userSpaceOnUse">
<stop stop-color="#564EFF"/>
<stop offset="1" stop-color="#2589FF"/>
</linearGradient>
<clipPath id="clip0_160_25">
<rect width="120" height="120" fill="white"/>
</clipPath>
</defs>
</svg>
