<svg width="120" height="120" viewBox="0 0 120 120" fill="none" xmlns="http://www.w3.org/2000/svg">
<g clip-path="url(#clip0_160_11)">
<path d="M102.864 45.524H78.184V17.124C78.172 8.224 70.964 1.016 62.064 1.004H17.112C13.024 0.700003 1.42804 5.12 5.51604 10.328C6.72004 11.464 8.61604 11.412 9.75604 10.208C11.664 8.18 14.324 7.024 17.108 7.008H62.068C67.656 7.016 72.18 11.54 72.188 17.128V46.168C72.176 51.668 67.616 56.36 62.068 56.288H34.148C33.504 56.288 32.876 56.496 32.36 56.88L18.228 67.356V59.208C18.228 57.724 17.144 56.464 15.676 56.244C10.7 55.468 7.02404 51.204 6.98804 46.168V23.768C6.98004 19.868 1.00404 19.828 0.988037 23.768V46.168C1.03204 53.184 5.56004 59.388 12.228 61.572V69.608C12.1 73.472 17.004 75.964 20.016 73.5L35.14 62.3H41.788V90.7C41.796 99.6 49.008 106.812 57.908 106.82H84.836L100.088 118.16C103.144 120.388 107.94 117.98 107.768 114.14V106.104C114.452 103.932 118.984 97.716 119.008 90.688V61.648C119 52.74 111.776 45.524 102.864 45.524ZM112.988 90.688C112.98 95.724 109.3 100 104.32 100.76C102.844 100.972 101.748 102.236 101.748 103.728V111.912L87.62 101.4C87.1 101.016 86.472 100.808 85.828 100.808H57.908C52.32 100.8 47.796 96.276 47.788 90.688V62.288H62.068C68.912 62.308 75.012 57.988 77.268 51.528H102.868C108.456 51.536 112.98 56.06 112.988 61.648V90.688Z" fill="url(#paint0_linear_160_11)"/>
<path d="M83.0921 60.896C81.9081 58.716 78.8281 58.68 77.6561 60.896L64.3841 88.68C62.6241 92.26 68.1081 94.896 69.7961 91.272L73.1201 84.316H87.6161L90.9401 91.272C92.5601 94.792 98.0841 92.188 96.3561 88.684C96.3601 88.684 83.0921 60.896 83.0921 60.896ZM76.0121 78.312L80.4121 69.148L84.7921 78.312H76.0121Z" fill="url(#paint1_linear_160_11)"/>
<path d="M19.884 47.772C20.464 49.296 22.312 50.064 23.808 49.432C29.436 47.228 34.776 44.344 39.704 40.844C44.588 44.28 49.836 47.164 55.356 49.44C56.864 50.124 58.644 49.452 59.324 47.944C60.004 46.436 59.336 44.656 57.828 43.976C53.172 42.06 48.72 39.68 44.54 36.868C47.052 34.584 49.16 31.9 50.784 28.92H55.636C59.556 28.904 59.56 22.936 55.636 22.92H42.584V16.624C42.584 14.968 41.24 13.624 39.584 13.624C37.928 13.624 36.584 14.968 36.584 16.624V22.92H23.532C19.612 22.936 19.608 28.904 23.532 28.92H43.7C42.48 30.484 41.12 31.932 39.624 33.24C38.872 32.62 38.424 32.224 38.424 32.208C35.196 29.324 31.196 34.504 34.772 36.992C30.616 39.744 26.18 42.048 21.544 43.872C20.012 44.492 19.268 46.24 19.884 47.772Z" fill="url(#paint2_linear_160_11)"/>
</g>
<defs>
<linearGradient id="paint0_linear_160_11" x1="-4.875" y1="21.0001" x2="85.875" y2="77.2501" gradientUnits="userSpaceOnUse">
<stop stop-color="#FEB548"/>
<stop offset="1" stop-color="#FF0000"/>
</linearGradient>
<linearGradient id="paint1_linear_160_11" x1="62.4183" y1="64.9713" x2="87.9809" y2="80.2945" gradientUnits="userSpaceOnUse">
<stop stop-color="#FEB548"/>
<stop offset="1" stop-color="#FF0000"/>
</linearGradient>
<linearGradient id="paint2_linear_160_11" x1="17.6843" y1="19.7419" x2="46.5839" y2="39.5614" gradientUnits="userSpaceOnUse">
<stop stop-color="#FEB548"/>
<stop offset="1" stop-color="#FF0000"/>
</linearGradient>
<clipPath id="clip0_160_11">
<rect width="120" height="120" fill="white"/>
</clipPath>
</defs>
</svg>
