<svg width="80" height="72" viewBox="0 0 80 72" fill="none" xmlns="http://www.w3.org/2000/svg">
<path d="M79.5634 65.7356L60.2528 27.1143C59.9089 26.4275 59.3806 25.85 58.7272 25.4464C58.0737 25.0428 57.3208 24.829 56.5527 24.829C55.7846 24.829 55.0317 25.0428 54.3782 25.4464C53.7248 25.85 53.1965 26.4275 52.8526 27.1143L45.7767 41.2524C41.0095 40.8357 36.4193 39.2472 32.4144 36.6282C37.2812 30.9684 40.3256 23.971 41.149 16.552H48.2767C49.3742 16.552 50.4267 16.116 51.2027 15.34C51.9787 14.564 52.4147 13.5115 52.4147 12.414C52.4147 11.3165 51.9787 10.264 51.2027 9.488C50.4267 8.71197 49.3742 8.276 48.2767 8.276H30.3454V4.138C30.3454 3.04054 29.9094 1.98802 29.1334 1.21199C28.3573 0.435967 27.3048 0 26.2074 0C25.1099 0 24.0574 0.435967 23.2813 1.21199C22.5053 1.98802 22.0693 3.04054 22.0693 4.138V8.276H4.138C3.04054 8.276 1.98802 8.71197 1.21199 9.488C0.435967 10.264 0 11.3165 0 12.414C0 13.5115 0.435967 14.564 1.21199 15.34C1.98802 16.116 3.04054 16.552 4.138 16.552H32.804C32.0278 21.945 29.7407 27.0081 26.2074 31.1557C24.4831 29.1379 23.0443 26.8928 21.9314 24.4832C21.7134 23.9764 21.3963 23.5183 20.9987 23.1359C20.6012 22.7534 20.1311 22.4544 19.6162 22.2562C19.1014 22.0581 18.5521 21.9649 18.0007 21.9822C17.4493 21.9994 16.9069 22.1268 16.4055 22.3567C15.904 22.5866 15.4536 22.9145 15.0806 23.321C14.7077 23.7276 14.4199 24.2046 14.234 24.724C14.0482 25.2434 13.968 25.7948 13.9984 26.3456C14.0287 26.8964 14.1688 27.4356 14.4106 27.9315C15.8581 31.0796 17.7397 34.0093 20.0003 36.6351C15.2911 39.7349 9.77584 41.3847 4.138 41.38C3.04054 41.38 1.98802 41.816 1.21199 42.592C0.435967 43.368 0 44.4206 0 45.518C0 46.6155 0.435967 47.668 1.21199 48.444C1.98802 49.2201 3.04054 49.656 4.138 49.656C12.0831 49.6625 19.8199 47.1154 26.2074 42.3904C30.8395 45.7993 36.1958 48.0933 41.8593 49.0939L33.5385 65.7356C33.2799 66.2231 33.1214 66.7573 33.0723 67.307C33.0232 67.8566 33.0846 68.4105 33.2528 68.936C33.4209 69.4616 33.6925 69.9482 34.0515 70.3673C34.4106 70.7863 34.8498 71.1293 35.3433 71.3761C35.8369 71.6229 36.3748 71.7685 36.9255 71.8043C37.4761 71.8401 38.0284 71.7654 38.5497 71.5845C39.0711 71.4037 39.551 71.1205 39.9613 70.7515C40.3715 70.3824 40.7038 69.9351 40.9386 69.4357L45.3146 60.6907H67.7874L72.1599 69.4357C72.6505 70.4175 73.5111 71.1641 74.5523 71.5114C75.5934 71.8587 76.7299 71.7781 77.7117 71.2874C78.6935 70.7968 79.4401 69.9362 79.7874 68.895C80.1347 67.8539 80.0541 66.7174 79.5634 65.7356ZM49.4526 52.4147L56.5527 38.2179L63.6494 52.4147H49.4526Z" fill="#FF0000"/>
</svg>
