<svg width="114" height="108" viewBox="0 0 114 108" fill="none" xmlns="http://www.w3.org/2000/svg">
<path d="M63.8972 44.1379H96.6558V61.3793H67.3454C67.3454 68.2759 69.0696 71.7241 75.9661 71.7241H107.001V87.2414C85.3282 86.3103 48.5178 94.6724 50.2592 61.3793H44.9316V44.1379H50.1041V33.7931H44.9316V20H107.001V33.7931H63.8972V44.1379Z" fill="white"/>
<path d="M50.1034 33.7931H8V20H70.7931V33.7931H65.6207V44.1379H70.7931V61.3793H65.4828C67.2241 94.7931 28.7759 86.2759 7 87.2414V71.7241H38.0345C44.931 71.7241 48.3793 68.2759 48.3793 61.3793H17.3448V44.1379H50.1034V33.7931Z" fill="white"/>
</svg>
